# xmcd CD database file
#
# Track frame offsets:
#	150
#	30607
#	57835
#	88425
#	111317
#
# Disc length: 2017 seconds
#
# Revision: 0
# Processed by: cddbd v1.4PL0 Copyright (c) Steve Scherf et al.
# Submitted via: CDex 1.50
#
DISCID=4007df05
DTITLE=Thursday Group - Uncle Mean
DYEAR=1988
DGENRE=Jazz
TTITLE0=Like White on Rice
TTITLE1=Uncle Mean
TTITLE2=Moroccan
TTITLE3=Turtle Spin
TTITLE4=Pelican Fan
EXTD=YEAR: 1988
EXTT0=
EXTT1=
EXTT2=
EXTT3=
EXTT4=
PLAYORDER=
